<?xml version="1.0" encoding="UTF-8"?>
<svg id="Capa_2" data-name="Capa 2" xmlns="http://www.w3.org/2000/svg" viewBox="0 0 74.62 81.81">
  <defs>
    <style>
      .cls-1 {
        fill: #ff1f00;
      }

      .cls-2 {
        fill: #fff;
      }
    </style>
  </defs>
  <g id="Capa_2-2" data-name="Capa 2">
    <g>
      <path class="cls-1" d="M14.4,18.6c.5-.8,1.1-1.6,1.8-2.4,2.7-3,6.1-4.4,10.3-4.4s9,2.3,11.5,6.8h15c-1.6-5.5-4.9-9.9-9.9-13.4C38,1.8,32.6,0,26.8,0S12.4,2.6,6.9,7.7C3.6,10.8,1.3,14.5,0,18.6c0,0,14.4,0,14.4,0Z"/>
      <g>
        <path class="cls-2" d="M35.33,33.95v30.22c0,2.7-.4,5.14-1.2,7.31-.8,2.17-1.95,4.02-3.44,5.55-1.49,1.52-3.29,2.7-5.41,3.53-2.12.83-4.51,1.24-7.15,1.24-1.61,0-3.15-.15-4.59-.45-1.45-.3-2.78-.73-4-1.3-1.22-.57-2.32-1.25-3.29-2.07s-1.81-1.73-2.49-2.74c-.69-1.01-1.21-2.12-1.58-3.32-.36-1.2-.55-2.47-.55-3.81h9.45c0,.94.17,1.8.52,2.57.35.78.83,1.44,1.44,2,.61.55,1.34.98,2.19,1.28.85.3,1.78.45,2.78.45,1.22,0,2.32-.23,3.29-.7.97-.46,1.79-1.14,2.46-2.02.67-.88,1.18-1.95,1.54-3.21.36-1.26.54-2.68.54-4.27v-7.98l.05-.03c-.38,1.75-.92,3.31-1.63,4.69-.71,1.37-1.57,2.53-2.58,3.47s-2.16,1.66-3.45,2.15c-1.29.49-2.71.74-4.26.74-1.36,0-2.65-.19-3.87-.58-1.22-.38-2.35-.93-3.38-1.65-1.03-.71-1.97-1.58-2.8-2.6-.83-1.02-1.54-2.17-2.12-3.45-.58-1.28-1.03-2.67-1.34-4.19-.31-1.51-.47-3.12-.47-4.8s.16-3.28.47-4.78c.31-1.5.76-2.88,1.34-4.14.58-1.26,1.29-2.39,2.12-3.39.83-1,1.77-1.84,2.8-2.54,1.03-.7,2.16-1.23,3.38-1.6,1.22-.37,2.51-.55,3.87-.55,1.55,0,2.97.24,4.26.71,1.29.47,2.44,1.17,3.45,2.09,1.01.92,1.87,2.05,2.58,3.4.71,1.35,1.25,2.89,1.63,4.63l-.05-.05v-9.83h9.48ZM25.61,47.34c-.16-.81-.41-1.55-.73-2.2-.32-.65-.72-1.23-1.19-1.73-.47-.5-1.01-.91-1.63-1.25s-1.31-.59-2.07-.75c-.76-.16-1.58-.25-2.47-.25-1.3,0-2.44.18-3.44.54-.99.36-1.83.9-2.5,1.64-.68.73-1.18,1.65-1.53,2.76-.34,1.11-.51,2.41-.51,3.89s.17,2.81.51,3.94c.34,1.13.85,2.08,1.53,2.84.68.76,1.51,1.34,2.5,1.73.99.39,2.14.59,3.44.59.89,0,1.71-.09,2.47-.27s1.45-.45,2.06-.8c.61-.35,1.16-.79,1.63-1.31.48-.52.87-1.11,1.2-1.79.32-.67.56-1.42.73-2.25.16-.82.25-1.72.25-2.69s-.08-1.85-.25-2.66Z"/>
        <path class="cls-2" d="M39.81,46.16c.39-1.63.95-3.13,1.69-4.49.73-1.36,1.62-2.58,2.67-3.66,1.04-1.08,2.22-1.99,3.53-2.73,1.31-.74,2.74-1.31,4.29-1.7s3.2-.59,4.94-.59,3.39.2,4.94.59,2.98.96,4.29,1.7c1.31.74,2.49,1.65,3.53,2.73,1.04,1.08,1.93,2.29,2.67,3.66.73,1.36,1.3,2.86,1.69,4.49.39,1.63.59,3.37.59,5.23s-.2,3.6-.59,5.23c-.39,1.63-.95,3.13-1.69,4.5-.73,1.37-1.62,2.59-2.67,3.66s-2.22,1.98-3.53,2.73c-1.31.75-2.74,1.32-4.29,1.71s-3.2.59-4.94.59-3.39-.2-4.94-.59-2.98-.96-4.29-1.71c-1.31-.75-2.49-1.66-3.53-2.73-1.04-1.07-1.93-2.29-2.67-3.66-.73-1.37-1.3-2.87-1.69-4.5-.39-1.63-.59-3.38-.59-5.23s.2-3.6.59-5.23ZM49.32,55.71c.36,1.26.9,2.32,1.6,3.19.7.87,1.56,1.52,2.57,1.97s2.16.67,3.45.67,2.42-.22,3.44-.67,1.87-1.11,2.56-1.97c.7-.87,1.23-1.93,1.59-3.19.36-1.26.55-2.7.55-4.31s-.18-3.05-.55-4.31c-.36-1.26-.89-2.32-1.59-3.18-.7-.86-1.55-1.51-2.56-1.96s-2.16-.67-3.44-.67-2.44.22-3.45.67-1.87,1.1-2.57,1.96c-.7.86-1.23,1.92-1.6,3.18-.36,1.26-.55,2.7-.55,4.31s.18,3.05.55,4.31Z"/>
      </g>
    </g>
  </g>
</svg>