<?xml version="1.0" encoding="UTF-8"?>
<svg id="Capa_2" data-name="Capa 2" xmlns="http://www.w3.org/2000/svg" viewBox="0 0 127.8 97.8">
  <defs>
    <style>
      .cls-1 {
        fill: #1d1d1b;
      }
    </style>
  </defs>
  <g id="Capa_2-2" data-name="Capa 2">
    <g>
      <g>
        <path class="cls-1" d="M78.9,47.2h-25.4V1.1h11.8v35.8h13.7v10.3h-.1Z"/>
        <path class="cls-1" d="M127.8,24.1c0,6.8-2.4,12.5-7.1,17-4.7,4.6-10.5,6.9-17.3,6.9s-12.3-2.3-17.1-6.8c-4.8-4.5-7.2-10-7.2-16.6s.6-6.8,1.8-9.8c.6-1.7,1.6-3.4,3-5.2C88.7,3.3,95.2.1,103.4.1s12.5,2.3,17.3,6.9c4.7,4.6,7.1,10.3,7.1,17v.1ZM116,24.2c0-3.7-1.2-6.9-3.5-9.6s-5.4-4.1-9-4.1-6.7,1.3-9.1,4c-2.3,2.6-3.5,5.8-3.5,9.5s1.2,7,3.6,9.7,5.4,4,9.2,4,6.6-1.3,8.9-4,3.5-5.8,3.5-9.5h-.1Z"/>
        <g>
          <path class="cls-1" d="M39.3,97.8h-13.5l-10.7-14.9h-.1v14.9H3.7v-46.2h14.6c2.1,0,3.8,0,5.1.1,1.3,0,2.8.4,4.6.9,1.8.5,3.3,1.3,4.5,2.3,3.8,3,5.7,7.2,5.7,12.6s-1,6.8-3.1,9.6c-2.1,2.7-4.9,4.4-8.4,5l12.5,15.7h.1ZM27,68.2c0-2.1-.7-3.7-2.2-4.7-1.4-1-3.3-1.5-5.5-1.5h-4.3v12.8h4.2c2.4,0,4.2-.5,5.6-1.6s2.1-2.7,2.1-5h.1Z"/>
          <path class="cls-1" d="M54.6,97.8h-11.8v-46.2h11.8v46.2Z"/>
          <path class="cls-1" d="M103.7,97.8h-12.8l-2.2-6.7h-16l-2.4,6.7h-12.7l18.5-46.2h9.3l18.3,46.1v.1ZM85.6,81.7l-4.7-15.8h-.2l-4.7,15.8h9.7-.1Z"/>
        </g>
      </g>
      <g>
        <path class="cls-1" d="M49.5,20.9h-27.6v9.5h13.9c-.7,2.5-2.1,4.3-4.1,5.6-2,1.3-4.4,1.9-7,1.9-3.9,0-6.9-1.3-9.3-4-2.3-2.7-3.5-6-3.5-9.9s0-2.1.3-3H.2c-.1,1-.2,2-.2,3,0,6.9,2.4,12.6,7.2,17.3,4.8,4.7,10.6,7,17.5,7s13-2.4,17.7-7.1c4.7-4.7,7.1-10.7,7.1-17.8s0-1.9,0-2.4v-.1Z"/>
        <path class="cls-1" d="M14,16.5c.4-.7,1-1.4,1.6-2.1,2.4-2.6,5.4-3.9,9.1-3.9s8,2,10.2,6h13.3c-1.4-4.9-4.3-8.8-8.8-11.9C34.9,1.5,30.1,0,25,0S12.2,2.3,7.4,6.8c-3,2.8-5,6-6.2,9.6h12.7l.1.1Z"/>
      </g>
    </g>
  </g>
</svg>